# AST/ASF file generated using VICON BodyLanguage
# -----------------------------------------------
:version 1.10
:name VICON
:units
  mass 1.0
  length 0.45
  angle deg
:documentation
   .ast/.asf automatically generated from VICON data using
   VICON BodyBuilder and BodyLanguage model FoxedUp or BRILLIANT.MOD
:root
   order TX TY TZ RX RY RZ
   axis XYZ
   position 0 0 0  
   orientation 0 0 0 
:bonedata
  begin
     id 1 
     name lhipjoint
     direction 0.700308 -0.549349 0.455834 
     length 2.59063 
     axis 0 0 0  XYZ
  end
  begin
     id 2 
     name lfemur
     direction 0.34202 -0.939693 0  
     length 6.31066  
     axis 0 0 20  XYZ
    dof rx ry rz
    limits (-160.0 20.0)
           (-70.0 70.0)
           (-60.0 70.0)
  end
  begin
     id 3 
     name ltibia
     direction 0.34202 -0.939693 0   
     length 7.36093   
     axis 0 0 20   XYZ
    dof rx
    limits (-10.0 170.0)
  end
  begin
     id 4 
     name lfoot
     direction 0.0905332 -0.248738 0.96433   
     length 2.0233   
     axis -90 7.62852e-016 20   XYZ
    dof rx rz
    limits (-45.0 90.0)
           (-70.0 20.0)
  end
  begin
     id 5 
     name ltoes
     direction 1.53573e-011 -4.21855e-011 1   
     length 1.01524   
     axis -90 7.62852e-016 20   XYZ
    dof rx
    limits (-90.0 20.0)
  end
  begin
     id 6 
     name rhipjoint
     direction -0.61416 -0.607328 0.503944   
     length 2.34332  
     axis 0 0 0  XYZ 
  end
  begin
     id 7 
     name rfemur
     direction -0.34202 -0.939693 0   
     length 6.58548   
     axis 0 0 -20   XYZ
    dof rx ry rz
    limits (-160.0 20.0)
           (-70.0 70.0)
           (-70.0 60.0)
  end
  begin
     id 8 
     name rtibia
     direction -0.34202 -0.939693 0   
     length 7.20707   
     axis 0 0 -20   XYZ
    dof rx
    limits (-10.0 170.0)
 end
 begin
     id 9 
     name rfoot
     direction -0.136772 -0.375778 0.916561   
     length 1.92184  
     axis -90 -7.62852e-016 -20   XYZ
    dof rx rz
    limits (-45.0 90.0)
           (-20.0 70.0)
  end
  begin
     id 10 
     name rtoes
     direction -1.53535e-011 -4.21828e-011 1   
     length 0.951089   
     axis -90 -7.62852e-016 -20   XYZ
    dof rx
    limits (-90.0 20.0)
  end
  begin
     id 11 
     name lowerback
     direction -0.0444974 0.988086 -0.147332   
     length 1.9609   
     axis 0 0 0   XYZ
    dof rx ry rz
    limits (-20.0 45.0)
           (-30.0 30.0)
           (-30.0 30.0)
  end
  begin
     id 12 
     name upperback
     direction 0.00613146 0.999513 0.0306081   
     length 1.94944   
     axis 0 0 0   XYZ
    dof rx ry rz
    limits (-20.0 45.0)
           (-30.0 30.0)
           (-30.0 30.0)
  end
  begin
     id 13 
     name thorax
     direction 0.0254621 0.994518 0.101418   
     length 2.0119   
     axis 0 0 0   XYZ
    dof rx ry rz
    limits (-20.0 45.0)
           (-30.0 30.0)
           (-30.0 30.0)
  end
  begin
     id 14 
     name lowerneck
     direction 0.0168698 0.977854 0.208608   
     length 1.6375   
     axis 0 0 0   XYZ
    dof rx ry rz
    limits (-20.0 45.0)
           (-30.0 30.0)
           (-30.0 30.0)
  end
  begin
     id 15 
     name upperneck
     direction -0.0283988 0.989338 -0.142843   
     length 1.6851   
     axis 0 0 0   XYZ
    dof rx ry rz
    limits (-20.0 45.0)
           (-30.0 30.0)
           (-30.0 30.0)
  end
  begin
     id 16
     name head
     direction -0.0129422 0.99741 -0.0707489  
     length 1.69029  
     axis 0 0 0   XYZ
    dof rx ry rz
    limits (-20.0 45.0)
           (-30.0 30.0)
           (-30.0 30.0)
  end
  begin
     id 17 
     name lclavicle
     direction 0.820295 0.564628 -0.0911715  
     length 3.16484  
     axis 0 0 0   XYZ
    dof ry rz
    limits (-20.0 10.0)
           (0.0 20.0)
  end
  begin
     id 18 
     name lhumerus
     direction 1 -4.48969e-011 1.00186e-027   
     length 5.17853   
     axis 180 -30 -90   XYZ
    dof rx ry rz
    limits (-60.0 90.0)
           (-90.0 90.0)
           (-90.0 90.0)
  end
  begin
     id 19
     name lradius
     direction 1 -4.48966e-011 -1.52922e-027   
     length 3.40399   
     axis 180 -30 -90   XYZ
    dof rx
    limits (-10.0 170.0)
  end
  begin
     id 20
     name lwrist
     direction 1 -4.48981e-011 -3.80893e-027   
     length 1.70199   
     axis 1.1049e-015 90 90   XYZ
    dof ry
    limits (-180.0 0.0)
 end
  begin
     id 21 
     name lhand
     direction 1 -4.48957e-011 -7.61786e-027   
     length 0.708964   
     axis 4.86085e-015 90 90   XYZ
    dof rx rz
    limits (-90.0 90.0)
           (-45.0 45.0)
  end
  begin
     id 22 
     name lfingers
     direction 1 -4.48929e-011 -1.52357e-026   
     length 0.571585   
     axis 9.7217e-015 90 90   XYZ
    dof rx
    limits (0.0 90.0)
  end
  begin
     id 23
     name lthumb
     direction 0.707107 -6.34905e-011 0.707107   
     length 0.820685   
     axis -90 45 2.85299e-015   XYZ
    dof rx rz
    limits (-45.0 45.0)
           (-45.0 45.0)
  end
  begin
     id 24 
     name rclavicle
     direction -0.858602 0.463947 -0.218075   
     length 3.35137  
     axis 0 0 0   XYZ 
    dof ry rz
    limits (-10.0 20.0)
           (-20.0 0.0)
  end
  begin
     id 25 
     name rhumerus
     direction -1 -4.48969e-011 -1.98511e-027  
     length 5.42351   
     axis 180 30 90   XYZ
    dof rx ry rz
    limits (-90.0 60.0)
           (-90.0 90.0)
           (-90.0 90.0)
  end
  begin
     id 26 
     name rradius
     direction -1 -4.48961e-011 -2.82624e-027   
     length 3.42066   
     axis 180 30 90   XYZ
    dof rx
    limits (-10.0 170.0)
  end
  begin
     id 27 
     name rwrist
     direction -1 -4.48966e-011 -3.80893e-027   
     length 1.71033   
     axis 1.1049e-015 -90 -90   XYZ
    dof ry
    limits (-180.0 0.0)
  end
  begin
     id 28
     name rhand
     direction -1 -4.48964e-011 -7.61786e-027   
     length 0.743608   
     axis 4.86085e-015 -90 -90   XYZ
    dof rx rz
    limits (-90.0 90.0)
           (-45.0 45.0)
  end
  begin
     id 29
     name rfingers
     direction -1 -4.48961e-011 -1.52357e-026   
     length 0.599516   
     axis 9.7217e-015 -90 -90   XYZ
    dof rx
    limits (0.0 90.0)
  end
  begin
     id 30
     name rthumb
     direction -0.707107 -6.34913e-011 0.707107   
     length 0.860789   
     axis -90 -45 -2.85299e-015   XYZ
    dof rx rz
    limits (-45.0 45.0)
           (-45.0 45.0)
  end
:hierarchy
  begin
    root lhipjoint rhipjoint lowerback
    lhipjoint lfemur
    lfemur ltibia
    ltibia lfoot
    lfoot ltoes
    rhipjoint rfemur
    rfemur rtibia
    rtibia rfoot
    rfoot rtoes
    lowerback upperback
    upperback thorax
    thorax lowerneck lclavicle rclavicle
    lowerneck upperneck
    upperneck head
    lclavicle lhumerus
    lhumerus lradius
    lradius lwrist
    lwrist lhand lthumb
    lhand lfingers
    rclavicle rhumerus
    rhumerus rradius
    rradius rwrist
    rwrist rhand rthumb
    rhand rfingers
  end

#!OML:ASF E:\mmandel\Project 1\Capture day 1\Session 2\Subject.ASF
:FULLY-SPECIFIED
:DEGREES
338
root 15.5432 8.98251 -0.12797 190.032 82.3185 131.514
lowerback 33.1698 0.349902 -12.9908
upperback 1.87007 -3.91723 0.176855
thorax -14.0685 -0.770819 8.70012
lowerneck -20.6773 -1.081 1.58505
upperneck -13.2258 -0.829093 -0.449949
head -0.898344 -0.0161777 -0.454684
rclavicle -4.05521e-014 1.37161e-014
rhumerus 1.24691 21.9944 -72.5131
rradius 74.825
rwrist -35.64
rhand -29.2452 22.719
rfingers 7.12502
rthumb -2.58852 -7.24506
lclavicle -4.05521e-014 1.37161e-014
lhumerus 53.3901 -7.97853 42.6397
lradius 33.2428
lwrist 8.38243
lhand -38.6961 295.13
lfingers 7.12502
lthumb -11.7106 -35.2171
rfemur -42.1735 -18.1736 15.7177
rtibia 99.1279
rfoot -27.5805 -4.98169
rtoes -6.90212
lfemur -85.4203 57.1889 -15.3809
ltibia 109.53
lfoot -19.4906 -17.7874
ltoes -21.689
339
root 15.4529 9.00315 -0.125592 190.544 82.1408 132.004
lowerback 33.1826 0.122641 -13.0237
upperback 1.90699 -4.22296 0.0742435
thorax -13.9651 -0.911513 8.71815
lowerneck -20.6143 -0.993535 1.92759
upperneck -13.4642 -0.768672 -0.418063
head -0.987962 0.00451622 -0.498491
rclavicle 1.90833e-014 4.55217e-014
rhumerus 0.255767 23.3598 -74.0985
rradius 75.1501
rwrist -37.8085
rhand -28.3812 21.359
rfingers 7.12502
rthumb -1.7541 -8.61351
lclavicle 1.90833e-014 4.55217e-014
lhumerus 54.0277 -7.28385 42.5651
lradius 32.2678
lwrist 7.89774
lhand -38.7539 295.341
lfingers 7.12502
lthumb -11.7663 -35.0098
rfemur -42.9344 -18.4561 15.7664
rtibia 99.9009
rfoot -27.3593 -4.72385
rtoes -5.82801
lfemur -86.2069 57.0317 -15.6914
ltibia 109.598
lfoot -19.4775 -18.6728
ltoes -21.311
340
root 15.3674 9.0281 -0.122966 189.97 81.8894 131.432
lowerback 33.2125 -0.140904 -13.0768
upperback 1.86438 -4.60077 -0.0594023
thorax -13.9476 -1.07325 8.74481
lowerneck -20.3762 -0.954211 2.13144
upperneck -13.5787 -0.754315 -0.329878
head -1.06128 -0.000192079 -0.502808
rclavicle 1.11319e-014 -3.20043e-014
rhumerus -0.78792 24.8867 -75.7284
rradius 75.1101
rwrist -39.5672
rhand -27.707 20.5922
rfingers 7.12502
rthumb -1.10291 -9.38471
lclavicle 1.11319e-014 -3.20043e-014
lhumerus 54.6166 -6.65884 42.4497
lradius 31.3142
lwrist 7.4999
lhand -38.7919 295.815
lfingers 7.12502
lthumb -11.8029 -34.5378
rfemur -43.5974 -18.8889 15.6298
rtibia 100.63
rfoot -27.278 -4.43446
rtoes -6.36012
lfemur -86.9976 56.6288 -16.195
ltibia 109.625
lfoot -19.8974 -19.0065
ltoes -22.664
341
root 15.2765 9.05009 -0.117641 189.44 81.8008 130.95
lowerback 33.238 -0.276373 -13.2828
upperback 1.86953 -4.85724 -0.142974
thorax -13.8803 -1.17792 8.85537
lowerneck -20.3527 -0.863131 2.27248
upperneck -13.5133 -0.670191 -0.391831
head -1.04272 0.0324991 -0.541889
rclavicle 1.03368e-013 5.30755e-014
rhumerus -1.60637 26.4648 -77.2489
rradius 74.7199
rwrist -40.827
rhand -27.1196 20.6648
rfingers 7.12502
rthumb -0.535594 -9.31428
lclavicle 1.03368e-013 5.30755e-014
lhumerus 55.4883 -5.9629 41.6824
lradius 30.3769
lwrist 7.88064
lhand -38.6418 296.655
lfingers 7.12502
lthumb -11.6582 -33.6892
rfemur -44.2997 -19.1618 15.5301
rtibia 101.395
rfoot -27.6108 -4.54418
rtoes -10.3955
lfemur -87.6728 56.468 -16.6131
ltibia 109.624
lfoot -18.3977 -20.1053
ltoes -16.9572
342
root 15.1949 9.07887 -0.107621 188.254 81.8008 130.376
lowerback 33.896 -0.341779 -13.6244
upperback 1.91696 -5.1489 -0.205182
thorax -14.0013 -1.26616 9.09005
lowerneck -20.6124 -0.753317 2.00259
upperneck -13.1681 -0.470404 -0.128244
head -0.886461 0.143616 -0.403146
rclavicle -7.31528e-014 -2.62396e-014
rhumerus -1.81132 28.4662 -78.2209
rradius 74.0994
rwrist -42.174
rhand -26.7257 20.1666
rfingers 7.12502
rthumb -0.155121 -9.81306
lclavicle -7.31528e-014 -2.62396e-014
lhumerus 55.9571 -5.03163 42.0798
lradius 29.0892
lwrist 6.82318
lhand -38.6801 297.345
lfingers 7.12502
lthumb -11.6952 -33.0017
rfemur -44.2116 -19.247 15.2573
rtibia 102.018
rfoot -27.662 -4.3945
rtoes -11.328
lfemur -86.9099 56.4999 -16.0377
ltibia 109.463
lfoot -15.3769 -21.6898
ltoes -3.50702
343
root 15.1182 9.11304 -0.0989483 187.326 81.6424 129.997
lowerback 34.439 -0.433566 -13.8547
upperback 2.12243 -5.3875 -0.249421
thorax -13.904 -1.36178 9.25115
lowerneck -20.9497 -0.716115 2.00417
upperneck -13.2144 -0.406581 -0.0624773
head -0.852401 0.185512 -0.380035
rclavicle -2.06736e-014 -9.14409e-015
rhumerus -1.66431 30.0444 -79.2437
rradius 73.3995
rwrist -42.7681
rhand -26.3126 18.4159
rfingers 7.12502
rthumb 0.243856 -11.5637
lclavicle -2.06736e-014 -9.14409e-015
lhumerus 57.105 -4.08916 41.7704
lradius 27.6963
lwrist 6.61185
lhand -38.6774 298.098
lfingers 7.12502
lthumb -11.6925 -32.2479
rfemur -44.1677 -19.4963 15.0589
rtibia 102.634
rfoot -27.327 -4.23311
rtoes -9.47192
lfemur -86.3107 56.2159 -15.5594
ltibia 109.302
lfoot -15.5323 -22.0643
ltoes -2.98582
344
root 15.0165 9.13284 -0.0911131 187.825 81.6897 130.203
lowerback 34.1196 -0.547682 -14.0836
upperback 2.01357 -5.59304 -0.261152
thorax -13.8297 -1.44507 9.43027
lowerneck -20.7478 -0.640247 2.14291
upperneck -13.3165 -0.332867 -0.0440515
head -0.915428 0.21407 -0.393171
rclavicle 4.77083e-014 4.37326e-014
rhumerus -1.53631 31.7034 -80.2029
rradius 72.4347
rwrist -43.1885
rhand -25.67 16.9095
rfingers 7.12502
rthumb 0.864485 -13.0685
lclavicle 4.77083e-014 4.37326e-014
lhumerus 57.4564 -2.93621 44.0152
lradius 26.1985
lwrist 4.19447
lhand -38.5364 297.99
lfingers 7.12502
lthumb -11.5566 -32.3489
rfemur -45.5676 -19.6535 15.3067
rtibia 103.612
rfoot -27.0296 -4.22774
rtoes -8.01566
lfemur -87.7778 56.1557 -16.3776
ltibia 109.43
lfoot -17.9263 -21.6272
ltoes -13.7068
345
root 14.9036 9.14945 -0.09442 187.692 81.3471 130.106
lowerback 33.7503 -1.08589 -13.9829
upperback 2.1526 -6.16438 -0.349567
thorax -13.3999 -1.74793 9.46701
lowerneck -20.6469 -0.493405 1.86068
upperneck -13.3163 -0.0621068 0.331417
head -0.927064 0.364192 -0.21307
rclavicle 7.95139e-015 -1.31198e-014
rhumerus -0.785786 33.8223 -80.9926
rradius 71.183
rwrist -43.7377
rhand -24.9161 16.5764
rfingers 7.12502
rthumb 1.59255 -13.3974
lclavicle 7.95139e-015 -1.31198e-014
lhumerus 58.4026 -1.77456 43.4616
lradius 24.5779
lwrist 4.5156
lhand -38.1692 298.533
lfingers 7.12502
lthumb -11.2025 -31.7865
rfemur -46.4486 -20.4213 15.2465
rtibia 104.599
rfoot -30.783 -6.22239
rtoes -27.6149
lfemur -88.741 55.6041 -16.8249
ltibia 109.616
lfoot -19.6794 -21.2021
ltoes -21.2438
346
root 14.7889 9.16221 -0.0919529 187.364 81.2423 129.792
lowerback 33.7856 -1.20844 -13.9576
upperback 2.04083 -6.36125 -0.561059
thorax -13.5241 -1.82103 9.30153
lowerneck -20.3672 -0.463435 2.44091
upperneck -13.3019 -0.165882 0.0352525
head -0.964939 0.274637 -0.408447
rclavicle 4.77083e-015 3.22031e-014
rhumerus -0.469512 34.9898 -82.013
rradius 69.7769
rwrist -44.1767
rhand -24.2413 16.6835
rfingers 7.12502
rthumb 2.24427 -13.2844
lclavicle 4.77083e-015 3.22031e-014
lhumerus 59.1423 -0.929491 45.5822
lradius 22.995
lwrist 2.27106
lhand -37.7319 298.422
lfingers 7.12502
lthumb -10.7806 -31.8746
rfemur -47.3903 -20.9225 15.2411
rtibia 105.602
rfoot -30.1932 -5.18977
rtoes -24.3387
lfemur -89.6876 55.3415 -17.3033
ltibia 109.81
lfoot -20.3906 -21.0546
ltoes -23.7459
347
root 14.6851 9.17796 -0.0813502 187.03 81.3796 129.417
lowerback 33.4949 -1.2316 -14.4802
upperback 2.02055 -6.51631 -0.354909
thorax -13.3039 -1.88142 9.84071
lowerneck -20.2512 -0.444443 2.09771
upperneck -13.2704 -0.0889798 -0.080349
head -0.969178 0.322278 -0.384162
rclavicle 7.95139e-015 -1.98785e-015
rhumerus 0.414812 36.8824 -82.3119
rradius 68.1913
rwrist -44.8211
rhand -23.8895 15.9639
rfingers 7.12502
rthumb 2.58408 -14.0002
lclavicle 7.95139e-015 -1.98785e-015
lhumerus 60.0053 0.496129 47.1786
lradius 21.2291
lwrist 0.831309
lhand -37.4688 298.761
lfingers 7.12502
lthumb -10.5269 -31.5226
rfemur -48.4182 -21.1014 15.3841
rtibia 106.528
rfoot -29.6185 -4.47605
rtoes -21.999
lfemur -90.586 55.3658 -17.8357
ltibia 109.943
lfoot -20.8553 -20.9624
ltoes -25.0221
348
root 14.588 9.19897 -0.0715046 186.576 81.4098 129.215
lowerback 33.3668 -1.49286 -14.5436
upperback 2.22635 -6.83063 -0.542945
thorax -12.9442 -2.05856 9.74932
lowerneck -20.9794 -0.344517 2.05907
upperneck -12.8392 0.0511147 0.157148
head -0.719318 0.401295 -0.294477
rclavicle 3.18055e-015 2.46493e-014
rhumerus 2.31253 38.4817 -82.4411
rradius 66.3441
rwrist -45.9546
rhand -23.5577 14.3652
rfingers 7.12502
rthumb 2.90455 -15.5948
lclavicle 3.18055e-015 2.46493e-014
lhumerus 61.0384 1.99266 48.4911
lradius 19.5307
lwrist -0.996067
lhand -37.4002 299.063
lfingers 7.12502
lthumb -10.4608 -31.2168
rfemur -48.987 -21.3444 15.4434
rtibia 107.338
rfoot -28.9872 -4.36829
rtoes -18.9318
lfemur -90.7902 55.2914 -17.8755
ltibia 109.992
lfoot -21.5968 -21.0736
ltoes -26.6358
